/* XPM */
const char *bookmarks_xpm[] = {
/* columns rows colors chars-per-pixel */
"16 16 152 2",
"i. c #916B00",
"o  c #966F02",
"w. c #EB8D18",
"&  c #B49029",
"3  c #FFE183",
"5  c #FFE492",
"4  c #FFE189",
"l  c #FFD258",
"9  c #B48719",
"a. c #FF9A29",
"t. c #FF941E",
">. c #FD9A1E",
"D  c #FFC646",
"b  c #FFCC5A",
"w  c #E9C257",
"F  c #FFC038",
"H  c #FFBD2F",
"}  c #BE830F",
",. c #A37204",
"M  c #FFCC67",
"E  c #8D6800",
"h  c #C19021",
"@  c #926900",
"A  c #BC8617",
"C  c #B78217",
"0  c #CEA539",
"^  c #FFB428",
"8. c #D48411",
"(  c #FFB127",
"=  c #EFD67D",
"*  c #956D02",
")  c #FFAE25",
"<  c #956D04",
" . c #FFAE26",
"W  c #BA8311",
"_  c #FFAB23",
".  c #BB992A",
"`  c #FFA822",
"O. c #FFA823",
"&. c #FFA824",
"g  c #AE7E13",
"   c None",
"d. c #BC770E",
"=. c #FFA522",
"p  c #FED985",
"b. c #986B01",
"$. c #8C6900",
":. c #FF9F20",
"Y  c #F8AD47",
"9. c #FF9C1E",
"0. c #FF9C21",
":  c #E6C973",
"r  c #FFDA70",
"z  c #FFD157",
"q  c #DCB247",
"q. c #FF9921",
"Z. c #8F6A00",
"x  c #FFCE54",
"6. c #FF961D",
"i  c #FFDA7F",
"f. c #946B00",
"e. c #EE8D18",
"G  c #FFBF33",
"y. c #FF9019",
"n  c #FFCB5D",
"n. c #8D6A00",
"#. c #B47A0A",
"m  c #FFCB62",
"#  c #BF9E39",
"k. c #FF9025",
"B  c #FFCB6D",
"!  c #FFB629",
"x. c #976C00",
"g. c #976C01",
"L  c #FFB62B",
"6  c #BA9128",
"c. c #E28217",
"/  c #FFB327",
"d  c #DAAC51",
"X  c #B39022",
"P  c #FFB32D",
"7. c #B77809",
"7  c #956C01",
".. c #FFAD26",
"o. c #FFAA25",
"V. c #936C00",
"*. c #FFA723",
"R  c #8E6800",
"$  c #FFF7B1",
"h. c #C17710",
"2  c #FFE889",
"l. c #DE7C0F",
"v. c #C67B14",
"T  c #B37B0F",
";. c #FFA121",
"m. c #916C00",
"{  c #8C6800",
";  c #FFEEA3",
"3. c #FF9E20",
"<. c #C2810E",
"4. c #FF9B1D",
"k  c #FFD660",
"t  c #FFD96C",
"@. c #FDA121",
"y  c #FFD972",
"5. c #FF981D",
"u  c #FFD978",
"M. c #9B6B01",
"c  c #FFCD55",
"v  c #FFCD57",
"j  c #FFD061",
"S  c #FCC04E",
"r. c #FF9521",
"p. c #E98815",
"j. c #F08924",
"Q  c #FCB433",
"[  c #8D6900",
"J  c #FFBB2C",
"+  c #ECD990",
"K  c #FFB82B",
"8  c #926A00",
"N  c #FFCA68",
"%. c #AD7808",
"1  c #C49E34",
"~  c #FFB527",
"'  c #F9A128",
"a  c #F3CB78",
"]  c #B2790C",
"I  c #FFB230",
"|  c #FFAF28",
"U  c #FFB53D",
"C. c #956B00",
">  c #906700",
"e  c #F4CF65",
"X. c #FFAC25",
"s  c #E7BD66",
"V  c #FFBE63",
"u. c #C87A0C",
"z. c #8E6A00",
"O  c #F7E8A5",
"B. c #DB7710",
"+. c #FFA622",
",  c #936B00",
"Z  c #8E6700",
"f  c #CC9D3C",
"-. c #FFA322",
"-  c #FFED9A",
"N. c #CD7812",
"s. c #ED8D24",
"%  c #FFF3B0",
"1. c #FFA020",
"2. c #FFA021",
/* pixels */
"              . X               ",
"            o O + @             ",
"            # $ % &             ",
"          * = - ; : >           ",
"      , < 1 2 3 4 5 6 7 8       ",
"9 0 q w e r t y u i p a s d f g ",
"h j k l z x c v b n m M N B V C ",
"Z A S D F G H J K L P I U Y T R ",
"  E W Q ! ~ ^ / ( ) _ ` ' ] [   ",
"    { } |  ...X.o.O.+.@.#.$.    ",
"      %.&.*.*.=.-.;.:.>.,.      ",
"      <.-.1.1.2.3.4.5.6.7.      ",
"      8.9.0.q.w.e.r.t.y.u.      ",
"    i.p.a.s.d.f.g.h.j.k.l.z.    ",
"    x.c.v.b.n.  m.n.M.N.B.,     ",
"    V.C.z.          m.Z.C.V.    "
};
