/* XPM */
const char *down_xpm[] = {
/* columns rows colors chars-per-pixel */
"16 16 169 2",
"h  c #24C0FF",
"J. c #126FBE",
"6. c #0757BD",
"Y  c #146CCC",
"u. c #248BDA",
"8. c #3397DE",
"c. c #0A61C4",
"m  c #199FED",
"$  c #1770BF",
"F. c #126FCD",
"W  c #3D9CDF",
";. c #1382D9",
"[  c #3985EE",
"v  c #1075D1",
"6  c #51ACEA",
"/  c #23A1ED",
"D. c #2598E6",
"0. c #1072CF",
"o  c #187DC7",
"_  c #176DC9",
"R. c #0971CF",
"e. c #2BA9F0",
"7. c #43A7E6",
"l  c #0C72BD",
"~  c #198DE0",
"v. c #0962AD",
"I. c #0E6FCD",
"1. c #1A9DEB",
"w. c #1EBDFF",
"H  c #1BB0F9",
"L. c #379FE4",
"r. c #1060C2",
"2  c #4FA0E2",
"3. c #1EBAFF",
"I  c #0655BC",
">  c None",
"V  c #189DEA",
"s. c #2AB6FA",
"s  c #1590E3",
"&. c #1F66C3",
"*  c #166BBC",
"A. c #328FD8",
"C  c #1393E6",
"Z. c #469FDF",
"j. c #4BA3E0",
"T  c #1C7FC8",
"3  c #4D9ADF",
":  c #386BAC",
"<  c #75BAED",
")  c #146ECB",
"x. c #2183D8",
"$. c #4DC6FD",
"=  c #1468BA",
"@  c #1772C0",
"i  c #107AD4",
"f. c #0A60C3",
"q. c #199EEC",
"n  c #1691E3",
"#  c #176FBE",
"!  c #157BD4",
"-  c #1966B8",
"C. c #0B6AB9",
"p. c #168EE2",
"y. c #4CA7E4",
"b  c #1074D0",
"7  c #54B8F2",
"V. c #0D67C8",
"c  c #137ED7",
"Z  c #1378C4",
"q  c #7CD5FC",
"   c #0F5BC0",
"2. c #1AA8F3",
"L  c #085DC1",
"K  c #1265C5",
"M. c #148EE2",
"W. c #0D64D3",
"`  c #4180CE",
"a  c #0E71CE",
"n. c #4099DC",
"z  c #43A6E6",
"e  c #0D5BBF",
"N  c #2084CC",
"S  c #258BDA",
"T. c #3A7CC6",
"J  c #29ABF2",
"t  c #2A89CC",
"O. c #1FA0EC",
"4  c #4C95DA",
":. c #0F7BD5",
",. c #1172CE",
"d  c #189FED",
".. c #2582D5",
"t. c #1592E5",
"X  c #2385CB",
"#. c #56C9FD",
"k. c #1980D5",
"=. c #3AA5E9",
"}  c #57AAE6",
"U. c #0D7ED8",
"&  c #166DBD",
"F  c #0F75D1",
"P  c #0457BF",
"0  c #54CCFF",
"o. c #1A90E2",
"p  c #0F72CF",
"z. c #23B1F8",
";  c #477CBE",
",  c #3178D0",
"E  c #2996E2",
"E. c #0F6FD6",
" . c #2689DA",
"u  c #1583DA",
"P. c #177AD3",
"d. c #1971CC",
"B  c #0C5CC0",
"f  c #1CADF6",
"X. c #1777D1",
"K. c #4EA3DF",
"^  c #1B97E7",
"G. c #0D6CCB",
"r  c #1499E9",
".  c #196ECF",
"*. c #0B69B0",
"%  c #176EBD",
"B. c #2793E2",
"@. c #21ABF4",
"%. c #6D9CD9",
"g  c #1DBAFF",
">. c #1577D1",
"+. c #239FEA",
"U  c #0D60B7",
"S. c #1490E3",
"(  c #1F7CD3",
"H. c #1183DB",
"m. c #137AD3",
"j  c #1A72C1",
"Q  c #1D82D7",
"A  c #4AA6E4",
"|  c #1684DA",
"k  c #0355BD",
"+  c #1875C2",
"9. c #117DD6",
"{  c #7BBBEE",
"-. c #3EA1E2",
"y  c #3EA1E3",
"9  c #58CBFE",
"5. c #2897E4",
"w  c #4176BA",
"1  c #54A8E6",
"g. c #128DE2",
"D  c #1177D3",
"5  c #4C94DA",
"a. c #1BAEF8",
"]  c #095499",
"4. c #21C2FF",
"l. c #189EEC",
"x  c #3296DF",
"b. c #379AE1",
"G  c #1591E3",
"Y. c #2C79C4",
"i. c #0F77D3",
"'  c #4978B3",
"M  c #21BFFF",
"O  c #1979C5",
"h. c #1E7DC7",
"<. c #158EE2",
"R  c #1A92E3",
"8  c #56C2F8",
"N. c #1BA2EF",
/* pixels */
"  . X o O + @ # $ % & * = - ; : ",
"> , < 1 2 3 4 5 6 7 8 9 0 q w e ",
"> r t y u i p a s d f g h j k > ",
"> > l z x c v b n m f M N B > > ",
"m V C Z A S D F G d H J K L P I ",
"U Y T R E W Q ! ~ ^ / ( ) _ ` ' ",
"] [ { } |  ...X.o.O.+.@.#.$.%.&.",
"> *.=.-.;.:.>.,.<.1.2.3.4.5.6.> ",
"> > l 7.8.9.v 0.<.q.f w.e.r.> > ",
"> > t.Z y.u.i.b p.q.a.s.d.f.> > ",
"> > > g.h.j.k.F p.l.z.x.c.> > > ",
"> > > > v.b.n.m.M.N.B.V.> > > > ",
"> > > > > C.Z.A.S.D.F.G.> > > > ",
"> > > > > H.J.K.L.P.I.> > > > > ",
"> > > > > > U.Y.T.R.> > > > > > ",
"> > > > > > > E.W.> > > > > > > "
};
