/* XPM */
const char *forward_xpm[] = {
/* columns rows colors chars-per-pixel */
"16 16 9 1",
". c Black",
"$ c #FFFFFF",
"  c None",
"X c #004040",
"# c #C0FFFF",
"@ c #00FFFF",
"O c #008080",
"+ c #0000FF",
"o c #00C0C0",
/* pixels */
"                ",
"        ..      ",
"        .X.     ",
"        .oO.    ",
".........oo+.   ",
".XOOOOOOOoooO.  ",
".OoooooooooooO. ",
".Oooooooooooo@#.",
".Ooooooooooo@$. ",
".@######@oo@$.  ",
".........o@$.   ",
"        .@$.    ",
"        .$.     ",
"        ..      ",
"                ",
"                "
};
