/* XPM */
const char *go_xpm[] = {
/* columns rows colors chars-per-pixel */
"16 16 160 2",
"0. c #1A5C3D",
"H  c #107427",
"R  c #CAFE7A",
"d  c #09731F",
"w. c #1D633B",
"=. c #196F39",
"b  c #2A9830",
"o  c #0E7721",
"e. c #1D633C",
"x  c #007814",
"r  c #0B9018",
"6. c #B8EB8A",
"7  c #A4F55B",
"B. c #306655",
",. c #0E7422",
"h. c #1D603D",
"@  c #126B30",
"s. c #A3E86D",
"}  c #0B6A29",
"M. c #2A4F57",
"O  c #13722A",
"f. c #287247",
"{  c #0E6E30",
"|  c #0A7421",
"b. c #2D734B",
"]  c #C1F77C",
";  c #008900",
".  c #0B8119",
"p. c #7ACF5B",
"%  c #08771D",
"x. c #459A4A",
"t. c #1E613E",
"<  c #008601",
"J. c #28495A",
"D. c #2D4D5C",
"S. c #2D4D5D",
"k. c #1C643A",
"Z  c #B3F26E",
":  c #10A20C",
"F  c #067718",
"5  c #00860B",
"G. c #31645B",
"m. c #205847",
"^  c #32913E",
" . c #047A16",
".. c #00830B",
"+  c #186A33",
"H. c #2D4762",
"s  c #169023",
"v. c #74D24C",
"O. c #116931",
"   c None",
"2  c #69DD44",
"_  c #2E9439",
"/  c #C9FC98",
"Z. c #24465B",
"q. c #1D653A",
"+. c #82CE6C",
"e  c #007A15",
";. c #146A31",
"8  c #3AB32B",
"A. c #255051",
"Y  c #6DCB51",
">. c #107027",
"8. c #72CC50",
"*. c #6DC84F",
"W  c #097228",
"a  c #1C9525",
"7. c #AFEC79",
"3  c #20AC1C",
"n  c #62D044",
"l  c #D2FF69",
"m  c #148425",
"N. c #2A4B59",
"5. c #C5F396",
"S  c #53BB3F",
"#  c #0C7028",
"o. c #176537",
"K  c #7FD55F",
"-  c #008B06",
"~  c #0E6A2C",
"A  c #D0FF72",
"D  c #03751F",
"=  c #02850B",
">  c #10A70E",
"w  c #08761C",
"9  c #008806",
"E  c #5DC044",
"Q  c #0A7022",
"I  c #0E672E",
"!  c #067918",
"`  c #98E36C",
"B  c #0A6D27",
"c  c #027F0F",
"i. c #216744",
"q  c #097D18",
"M  c #0F6E28",
"f  c #14722A",
"4. c #B5EE89",
"(  c #73C75E",
"&. c #B8F27C",
"l. c #275250",
"4  c #007F0F",
"c. c #92E958",
"L  c #107828",
"d. c #74CE51",
"p  c #018908",
"u. c #1E544A",
"K. c #255251",
"u  c #46B734",
"0  c #0A8118",
")  c #0B6E2A",
":. c #126C2D",
"1  c #27AC1A",
"2. c #13593C",
"N  c #126C30",
"X  c #0A7E19",
"$. c #A5E678",
"C  c #46B43A",
"t  c #6ED442",
"V. c #5AC43F",
"'  c #CCF991",
"h  c #007318",
"6  c #47BE2F",
"*  c #018010",
"y. c #1F5849",
"1. c #1B613D",
"z  c #49B838",
"C. c #397C4F",
"-. c #146035",
"v  c #028A09",
"$  c #0C7222",
"@. c #D1FAA1",
"X. c #008D06",
"[  c #64C34B",
"J  c #7AD05A",
"g. c #1D5547",
"r. c #1E623D",
"V  c #087821",
",  c #02840B",
"T  c #C6F981",
"<. c #0D791E",
"j. c #1C6539",
"U  c #17842B",
"k  c #96E859",
"G  c #02810E",
"a. c #ABE87C",
"%. c #C8F395",
"&  c #027E17",
"9. c #1D6F40",
"F. c #304F60",
"i  c #007E0B",
"3. c #3C9443",
"j  c #1E9C26",
"#. c #76CD5C",
"n. c #224D51",
"z. c #224D52",
"y  c #BEFC65",
"P  c #166833",
"g  c #0B7021",
/* pixels */
"                                ",
". X o O + @ # $ % & * = - ; : > ",
". X o O + @ # $ % & * , < 1 2 3 ",
". X o O + @ # $ % & 4 5 6 7 8 9 ",
"0 q o O + @ # $ w e r t y u i p ",
"a s d f + @ # g h j k l z x c v ",
"b n m M + N B V C Z A S D F G v ",
"H J K L P I U Y T R E W Q ! G v ",
"~ ^ / ( ) _ ` ' ] [ { } |  ...X.",
"o.O.+.@.#.$.%.&.*.=.-.;.:.>.,.<.",
"1.2.3.4.5.6.7.8.9.0.q.w.e.r.t.t.",
"y.u.i.p.a.s.d.f.g.h.j.k.k.k.k.k.",
"l.l.z.x.c.v.b.n.m.h.j.k.k.k.k.k.",
"M.M.N.B.V.C.Z.A.m.h.j.k.k.k.k.k.",
"S.S.D.F.G.H.J.K.m.h.j.k.k.k.k.k.",
"                                "
};
