/* XPM */
const char *left_xpm[] = {
/* columns rows colors chars-per-pixel */
"16 16 170 2",
"e  c #24C0FF",
"%. c #126FBE",
"@  c #0757BD",
"P. c #146CCC",
"8. c #248BDA",
"s. c #3397DE",
"5  c #0A61C4",
"P  c #199FED",
"`  c #1770BF",
"w. c #3D9CDF",
"x  c #126FCD",
"W. c #1B96EC",
"d. c #1382D9",
"L. c #3985EE",
";. c #1075D1",
"_  c #51ACEA",
"N  c #23A1ED",
".. c #1072CF",
"S  c #2598E6",
"V. c #187DC7",
",  c #176DC9",
"Z  c #0971CF",
"7  c #2BA9F0",
"Z. c #0C72BD",
"v. c #43A7E6",
"^  c #198DE0",
"i. c #0962AD",
"z  c #0E6FCD",
"H  c #1A9DEB",
"a  c #1EBDFF",
"B  c #1BB0F9",
"R  c #379FE4",
"l. c #4FA0E2",
";  c #1060C2",
"s  c #1EBAFF",
"o  c #0655BC",
"   c None",
"I. c #189DEA",
")  c #1590E3",
"p  c #2AB6FA",
".  c #1F66C3",
"l  c #166BBC",
"{  c #328FD8",
"F. c #1393E6",
"7. c #4BA3E0",
"&. c #469FDF",
"D. c #1C7FC8",
"y. c #4D9ADF",
"+  c #386BAC",
"H. c #75BAED",
"0  c #146ECB",
"i  c #2183D8",
">  c #4DC6FD",
"t  c #1468BA",
"3. c #1772C0",
"t. c #107AD4",
"-  c #0A60C3",
"G  c #199EEC",
"(  c #1691E3",
"#. c #176FBE",
"O. c #157BD4",
"4  c #1966B8",
"a. c #4CA7E4",
"5. c #0B6AB9",
"Q  c #168EE2",
" . c #1074D0",
"I  c #54B8F2",
"u  c #0D67C8",
"r. c #137ED7",
"c. c #1378C4",
"Q. c #0F5BC0",
"3  c #7CD5FC",
"m  c #1AA8F3",
"<  c #085DC1",
"q  c #1265C5",
"W  c #148EE2",
"Y  c #0D64D3",
"$  c #4180CE",
"+. c #0E71CE",
"M. c #43A6E6",
"*. c #4099DC",
"O  c #0D5BBF",
"w  c #2084CC",
"e. c #258BDA",
"T  c #3A7CC6",
"G. c #2A89CC",
"g  c #29ABF2",
"2. c #4C95DA",
"J  c #1FA0EC",
"0. c #0F7BD5",
"X. c #1172CE",
"L  c #189FED",
">. c #2582D5",
"J. c #2385CB",
"C. c #1592E5",
"9  c #56C9FD",
"=. c #1980D5",
"A. c #3AA5E9",
"n. c #57AAE6",
"$. c #0D7ED8",
"C  c #166DBD",
"|  c #0F75D1",
"%  c #0457BF",
"r  c #54CCFF",
"~  c #1A90E2",
"1. c #0F72CF",
"v  c #23B1F8",
"=  c #477CBE",
"Y. c #3178D0",
"g. c #2996E2",
"q. c #2689DA",
"'  c #0F6FD6",
"k. c #1583DA",
"A  c #177AD3",
"6  c #1971CC",
"1  c #0C5CC0",
"n  c #1CADF6",
"o. c #1777D1",
"[  c #4EA3DF",
"K  c #1B97E7",
"y  c #0D6CCB",
"T. c #196ECF",
"U. c #1499E9",
"K. c #0B69B0",
"U  c #176EBD",
"c  c #2793E2",
"d  c #21ABF4",
"j  c #1DBAFF",
"#  c #6D9CD9",
":. c #1577D1",
"M  c #239FEA",
"E. c #0D60B7",
"E  c #1490E3",
"f  c #1F7CD3",
"4. c #1183DB",
"}  c #137AD3",
"2  c #1A72C1",
",. c #1D82D7",
"h. c #4AA6E4",
"f. c #1684DA",
"&  c #0355BD",
"u. c #1875C2",
"9. c #117DD6",
"S. c #7BBBEE",
"b. c #3EA1E2",
"N. c #3EA1E3",
"k  c #58CBFE",
":  c #2897E4",
"*  c #4176BA",
"B. c #54A8E6",
"x. c #128DE2",
"<. c #1177D3",
"@. c #4C94DA",
"b  c #1BAEF8",
"R. c #095499",
"8  c #21C2FF",
"j. c #3296DF",
"F  c #189EEC",
"6. c #379AE1",
"/  c #1591E3",
"]  c #2C79C4",
"-. c #0F77D3",
"z. c #1979C5",
"h  c #21BFFF",
"X  c #4978B3",
"m. c #1A92E3",
"p. c #1E7DC7",
"!  c #158EE2",
"V  c #56C2F8",
"D  c #1BA2EF",
/* pixels */
"                  . X o     O + ",
"                @ # $ %   & * = ",
"            - ; : > , < 1 2 3 4 ",
"          5 6 7 8 9 0 q w e r t ",
"      y u i p a s d f g h j k l ",
"    z x c v b n m M N B n n V C ",
"  Z A S D F G G H J K L P L I U ",
"Y T R E W Q Q ! ! ~ ^ / ( ) _ ` ",
"' ] [ { } |  ...X.o.O.|  .+.@.#.",
"  $.%.&.*.=.-.;.:.>.,.<.;.1.2.3.",
"    4.5.6.7.8.9.0.q.w.e.r.t.y.u.",
"        i.p.a.s.d.f.g.h.j.k.l.z.",
"          x.c.v.b.n.m.c.M.N.B.V.",
"            C.Z.A.S.D.F.Z.G.H.J.",
"                K.L.P.I.  U.Y.T.",
"                  R.E.P     W.Q."
};
