/* XPM */
const char *menu_xpm[] = {
/* columns rows colors chars-per-pixel */
"16 16 53 1",
"n c Black",
"r c #5A5A5A",
"1 c #509CD8",
"l c #E1E1E1",
"8 c #597F9D",
"X c #FFFFFF",
"i c #535353",
"y c #717171",
"  c #808080",
"4 c #4995D1",
"> c #58A4E0",
"j c #E9E9E9",
"o c #797979",
"- c #60ACE8",
"t c #F1F1F1",
"7 c #698FAD",
"g c #EAEAEA",
"a c #4D4D4D",
"+ c #989898",
"< c #529EDA",
"6 c #5B819F",
"d c #464646",
"3 c #4B97D3",
"x c #EBEBEB",
"= c #62AEEA",
"v c #0B0B0B",
"e c #F3F3F3",
"% c #6B91AF",
"# c #747474",
": c #5BA7E3",
"z c #222222",
"u c #ECECEC",
". c #7C7C7C",
"2 c #4D99D5",
"0 c #567C9A",
"f c #EDEDED",
"$ c #FCFCFC",
", c #55A1DD",
"* c #64B0EC",
"b c #0D0D0D",
"w c #F5F5F5",
"k c #585858",
"s c #B2B2B2",
"; c #5DA9E5",
"p c #EEEEEE",
"9 c #668CAA",
"@ c #FDFDFD",
"q c #606060",
"5 c #4793CF",
"& c #65B1ED",
"c c #E7E7E7",
"h c #3B3B3B",
"O c #FEFEFE",
/* pixels */
"                ",
".XXXXXXXXXXXXXX.",
"oO+@@@@@@@@@@@Oo",
"#@$$$$$$$$$$$$@#",
"%&*=-;:>,<123456",
"7&X=-;:>,<123458",
"9&*=-;:>,<123450",
"qweeeeeeeeeeeewq",
"rtyuuuuuuuuuuutr",
"itppppppppppppti",
"assssssssssssssa",
"dfggggggggggggfd",
"hjkllllllllllljh",
"zxccccccccccccxz",
"vbbbbbbbbbbbbbbv",
"nnnnnnnnnnnnnnnn"
};
