/* XPM */
const char *netrider_xpm[] = {
/* columns rows colors chars-per-pixel */
"16 16 250 2",
"4X c #CB2900",
"A  c #DDFCF4",
"-  c #EDF2FA",
"e. c #D26B65",
"`  c #E1F0F8",
";  c #EDF2FB",
">  c #EBF5F1",
"K. c #E17463",
"c  c #F9EEEF",
"b. c #D07F18",
"#X c #E7C3AB",
"K  c #E2815D",
"bX c #F5FDFF",
"%X c #F92E00",
"S  c #E4F4F5",
"G. c #F1C8AB",
";. c #DBFFFF",
"`. c #E43400",
"I. c #F6DBE4",
"{  c #FFFFF8",
"g  c #F0F6FF",
"$  c #F7F1F7",
"p  c #FFFFF9",
"<X c #E8D6C5",
"f  c #FFFFFD",
"). c #BF4D1A",
"T. c #FFFFFE",
"U  c #E9F5F9",
";X c #B60000",
"J  c #FFFFFF",
"oX c #F89311",
"U. c #EEF9FF",
"f. c #F0E7DA",
"pX c #EAD6E5",
"#. c #CC6E56",
"j  c #F0F0FA",
"y  c #FFFCFE",
"<. c #FCECEB",
"@. c #D98979",
"m. c #E5B78E",
"9  c #F0F0FD",
"X. c #D3CD9D",
"q. c #D98F90",
"   c #EEF3F6",
"rX c #F4DBE7",
"R. c #AD0810",
"o  c #F5EEF3",
"qX c #FDFFFF",
",  c #E7F5FA",
"t. c #E1C397",
"HX c #FFF6FB",
"i. c #DF4D00",
"fX c #EEE4D0",
"1  c #E0F7FF",
"CX c #FDFCFF",
"D  c #F5EBF6",
",X c #E7F2FE",
"i  c #F4F8D8",
"mX c #FBFFFA",
"l. c #B40012",
"vX c #FBFCF4",
".X c #ECF3FB",
"'. c #D78370",
"S. c #F1F7FF",
":. c #F2D8E3",
"^. c #D78E16",
"<  c #E5F5FF",
"FX c #F9FFF0",
"}. c #CD4032",
"'  c #F8F2FD",
"Z. c #E69BA6",
"n. c #C65900",
"z  c #ECF0FF",
"GX c #E1FEFF",
"Z  c #F9FFFC",
".. c #C5CBB6",
"6  c #DEEBE3",
"3X c #CD5400",
"hX c #F3EBFF",
"r  c #EFF4F7",
"l  c #E8F6F9",
"5. c #C14F00",
"tX c #E8F6FF",
">. c #E7D7CF",
"C. c #C3323B",
"_  c #DB9A8C",
"w  c #EFF1FB",
"O  c #E8F3F9",
"%. c #EDF7FF",
"*X c #E6F9FF",
"/  c #E4FFFF",
"$. c #EFE2D3",
"*  c #E6F6F9",
"zX c #EDE5CB",
"+X c #F14E05",
"X  c #F4EFFC",
"dX c #FBEDFF",
"N. c #DD8266",
"{. c #D23842",
"A. c #F5FFFF",
"8  c #EDF1FF",
",. c #DB9DB3",
"8X c #C96643",
"AX c #FFFBE2",
"E  c #B47E7E",
"o. c #D0CB9F",
"L. c #ED9E7B",
"-X c #DA7B84",
"3. c #CB4800",
"MX c #F3FFFD",
"I  c #E1E0DD",
"Y. c #E4F3FD",
":X c #FDD2D5",
"XX c #DACD99",
"&. c #E2F9FE",
"|. c #E0FFFF",
"E. c #EDAAAE",
"Y  c #FFFEFE",
"J. c #D94718",
"h. c #C54951",
"Q. c #F5F3F6",
"b  c #AB3302",
"uX c #FAEEE2",
"y. c #D7991D",
"kX c #D9FBF9",
"@X c #DD2F00",
"c. c #F1FFFF",
"R  c #A25354",
"t  c #EEF2F7",
"+  c #EEF2FB",
"nX c #FDFEFF",
"v. c #DCB578",
"&  c #EEF2FF",
"a  c #C37E84",
"[. c #ECF5F9",
"n  c #BF1400",
"~  c #F3F3FF",
" X c #F3F0F8",
"2. c #FFF2FF",
"!  c #F8F4FF",
" . c #BE7178",
"!. c #EAF5F5",
"u  c #FFE3D3",
"OX c #E97A14",
"s. c #CED1E0",
"6. c #E9E5FA",
"sX c #F2CECE",
"&X c #F7D5DB",
"G  c #F6F1ED",
"B. c #DAFFFA",
">X c #F4FAF9",
"q  c #F1F0FA",
"H  c #D6DCE1",
"(  c #C36043",
"O. c #D2AA95",
"]  c #F6F4FF",
"gX c #ECDAC2",
"yX c #E6FEFE",
"g. c #A43844",
"1X c #EA8415",
"lX c #FEFFFD",
"d. c #F2FDFA",
"$X c #DE6840",
"eX c #A20003",
"V  c #9F3450",
"5  c #CACECA",
"d  c #B2928C",
"SX c #F9F8FF",
"w. c #E9C1A3",
"+. c #D05D17",
"=. c #EDF6FF",
"]. c #E4FEFF",
"r. c #D1949C",
"s  c #FFDAE5",
"=X c #E9FFFF",
"6X c #E9BEA9",
"(. c #FB5200",
"T  c #CBA6A5",
"a. c #ED3000",
"x  c #F9EFF5",
"[  c #F9E6D9",
"W. c #F0FAFF",
"F. c #EAC595",
"V. c #F7F2F2",
"wX c #C32533",
"=  c #EBF3FA",
":  c #EBF3FC",
"%  c #EDEDFD",
"9X c #F5F5ED",
"m  c #C4322D",
"L  c #BF2819",
"ZX c #E7FFFF",
"7X c #D32F00",
"/. c #C4750B",
"z. c #CA847E",
"2X c #D76F00",
"F  c #EBF0FD",
"iX c #EFD5CF",
"~. c #E3CAB0",
"8. c #E2C3D0",
"N  c #EEF1E4",
"0X c #F7EFFD",
"DX c #FCF3FF",
"Q  c #FFFDFF",
"e  c #E9F3FA",
"7  c #EEF4F4",
"-. c #ECFDFF",
"^  c #F5F2FC",
"k  c #EEF4FA",
"}  c #EFD5E0",
"5X c #C95329",
"D. c #F0EEFF",
"M. c #E8522C",
"cX c #E7F3F9",
"#  c #F3F2F2",
"x. c #F6FFFF",
"aX c #F1CCE4",
"jX c #E0F5FD",
"u. c #DA761B",
"B  c #D59CA6",
"k. c #DE8B8C",
"@  c #F3EFF3",
"VX c #F6FCFF",
"p. c #EEADAA",
"C  c #FCE1E7",
"j. c #DDA195",
"*. c #DEF8FF",
"0  c #F3EFFC",
"2  c #F3EFFF",
".  c #ECF1FF",
"P  c #E0AEA6",
"4  c #D7C2CE",
"7. c #EDFEFE",
"xX c #EBD5E4",
"H. c #FFDFD7",
"h  c #F1EFFB",
"M  c #C2847B",
")  c #F3D7CC",
"|  c #BC7082",
"P. c #DA3800",
"1. c #F2F3E3",
"BX c #FCFEF3",
"0. c #E26A7F",
"4. c #E1B5AC",
"_. c #F8DBD9",
"9. c #F7FDFF",
"v  c #BE9088",
"NX c #F0FFFF",
"W  c #FBEBEF",
"3  c #EDF5FF",
/* pixels */
"  . X o O + @ # $ % & * = - ; : ",
"> , < < 1 2 3 4 5 6 7 8 9 0 q w ",
"e r t y u i p a s d f g h j k l ",
"z x c v b n m M N B V C Z A S D ",
"F G H J K L P I U Y T R E W Q ! ",
"~ ^ / J ( ) _ ` ' ] [ { } |  ...",
"X.o.O.+.@.#.$.%.&.*.=.-.;.:.>.,.",
"<.1.2.3.4.5.6.7.8.9.J 0.q.w.e.r.",
"t.y.u.i.p.a.s.d.f.g.h.j.k.l.z.x.",
"c.v.b.n.m.M.N.B.V.J C.Z.x.A.S.D.",
"F.G.H.J.K.L.P.I.U.Y.T.R.E.W.Q.!.",
"~.^./.(.)._.`.'.].[.c.{.}.|. X.X",
"XXoXOX+X@X#X$X%X&X*X=X-X;X:X>X,X",
"<X1X2X3X4X5X6X7X8X9X0XqXwXeXrXtX",
"yXuXiXpXaXsXdXfXgXhXjXkXlXzXxXcX",
"vXbXnXmXMXNXBXVXCXZXAXSXDXFXGXHX"
};
