/* XPM */
const char *reload_xpm[] = {
/* columns rows colors chars-per-pixel */
"15 15 36 1",
"% c #639CE1",
"O c #72A5E3",
"- c #2F74D6",
"$ c #3E80D9",
"8 c #024DCD",
". c #84B2E7",
"1 c #3C7DD9",
"@ c #5591DE",
"  c None",
"9 c #71A6E4",
": c #679EE2",
"X c #80AFE6",
"3 c #105AD0",
", c #1A62D2",
"& c #5692DE",
"= c #3B7ED9",
"y c #0953CE",
"7 c #0953CF",
"6 c #115BD0",
"* c #4887DB",
"# c #4887DC",
"0 c #649CE0",
"5 c #3074D6",
"u c #0854CF",
"q c #5691DE",
"r c #3B7DD9",
"o c #72A6E3",
"t c #1962D2",
"+ c #649BE0",
"e c #4987DB",
"w c #4987DC",
"4 c #0853CF",
"; c #246BD3",
"2 c #1A63D2",
"< c #105BD0",
"> c #246BD4",
/* pixels */
"       .       ",
"      Xo       ",
"     XO+@#$    ",
"    Xo%&*=-;   ",
"     :@*=->,<  ",
"      *1  234  ",
"       5  678  ",
" 90@      788  ",
" %qw  >        ",
" @er  t6       ",
" *=->,<y8      ",
"  5>264888     ",
"   2<u8888     ",
"      888      ",
"      8        "
};
