/* XPM */
const char *right_xpm[] = {
/* columns rows colors chars-per-pixel */
"16 16 169 2",
"6  c #24C0FF",
"1. c #126FBE",
"*  c #0757BD",
"I. c #146CCC",
"w. c #248BDA",
"h. c #3397DE",
"r  c #0A61C4",
"S  c #199FED",
"U  c #1770BF",
"8. c #3D9CDF",
"B  c #126FCD",
"R. c #1B96EC",
"g. c #1382D9",
"U. c #3985EE",
"&. c #1075D1",
"Y  c #51ACEA",
"v  c #23A1ED",
".. c #1072CF",
"L  c #2598E6",
"z. c #187DC7",
",  c #176DC9",
"I  c #0971CF",
"w  c #2BA9F0",
"A. c #0C72BD",
"N. c #43A7E6",
"W  c #198DE0",
"l. c #0962AD",
"V  c #0E6FCD",
"G  c #1A9DEB",
"f  c #1EBDFF",
"c  c #1BB0F9",
"(  c #379FE4",
"i. c #4FA0E2",
"2  c #1060C2",
"d  c #1EBAFF",
"X  c #0655BC",
".  c None",
"P. c #189DEA",
"T  c #1590E3",
"g  c #2AB6FA",
"O  c #1F66C3",
"t  c #166BBC",
"o. c #328FD8",
"S. c #1393E6",
"e. c #4BA3E0",
"<. c #469FDF",
"D. c #1C7FC8",
"4. c #4D9ADF",
"   c #386BAC",
"C. c #75BAED",
"9  c #146ECB",
"h  c #2183D8",
"<  c #4DC6FD",
"4  c #1468BA",
"#. c #1772C0",
"5. c #107AD4",
"3  c #0A60C3",
"H  c #199EEC",
"R  c #1691E3",
"`  c #176FBE",
"}  c #157BD4",
"=  c #1966B8",
"j. c #4CA7E4",
"t. c #0B6AB9",
"~  c #168EE2",
"[  c #1074D0",
"Z  c #54B8F2",
"j  c #0D67C8",
"6. c #137ED7",
"b. c #1378C4",
"T. c #0F5BC0",
"-  c #7CD5FC",
"n  c #1AA8F3",
">  c #085DC1",
"8  c #1265C5",
"^  c #148EE2",
"_  c #0D64D3",
"%  c #4180CE",
"]  c #0E71CE",
"v. c #43A6E6",
",. c #4099DC",
"7  c #2084CC",
"7. c #258BDA",
")  c #3A7CC6",
"Z. c #2A89CC",
"p  c #29ABF2",
"$. c #4C95DA",
"F  c #1FA0EC",
"0. c #0F7BD5",
" . c #1172CE",
"A  c #189FED",
"-. c #2582D5",
"H. c #1592E5",
"V. c #2385CB",
"0  c #56C9FD",
">. c #1980D5",
"G. c #3AA5E9",
"m. c #57AAE6",
"2. c #0D7ED8",
"l  c #166DBD",
"{  c #0F75D1",
"$  c #0457BF",
"5  c #54CCFF",
"Q  c #1A90E2",
"%. c #0F72CF",
"M  c #23B1F8",
"+  c #477CBE",
"K. c #3178D0",
"d. c #2996E2",
"9. c #2689DA",
"@. c #0F6FD6",
"p. c #1583DA",
"P  c #177AD3",
"e  c #1971CC",
":  c #0C5CC0",
"x  c #1CADF6",
"|  c #1777D1",
"O. c #4EA3DF",
"D  c #1B97E7",
"k  c #0D6CCB",
"L. c #1499E9",
"J. c #196ECF",
"Y. c #0B69B0",
"C  c #176EBD",
"N  c #2793E2",
"s  c #21ABF4",
"u  c #1DBAFF",
"&  c #6D9CD9",
";. c #1577D1",
"b  c #239FEA",
"E. c #0D60B7",
"/  c #1490E3",
"a  c #1F7CD3",
"y. c #1183DB",
"X. c #137AD3",
";  c #1A72C1",
"=. c #1D82D7",
"s. c #4AA6E4",
"f. c #1684DA",
"#  c #0355BD",
"3. c #1875C2",
"q. c #117DD6",
"F. c #7BBBEE",
"M. c #3EA1E2",
"c. c #3EA1E3",
"y  c #58CBFE",
"1  c #2897E4",
"@  c #4176BA",
"x. c #54A8E6",
"B. c #128DE2",
"*. c #1177D3",
"'  c #4C94DA",
"m  c #1BAEF8",
"W. c #095499",
"q  c #21C2FF",
"a. c #3296DF",
"J  c #189EEC",
"r. c #379AE1",
"E  c #1591E3",
"+. c #2C79C4",
":. c #0F77D3",
"u. c #1979C5",
"i  c #21BFFF",
"o  c #4978B3",
"n. c #1A92E3",
"k. c #1E7DC7",
"!  c #158EE2",
"z  c #56C2F8",
"K  c #1BA2EF",
/* pixels */
"  . . . X o O . . . . . . . . . ",
"+ @ # . $ % & * . . . . . . . . ",
"= - ; : > , < 1 2 3 . . . . . . ",
"4 5 6 7 8 9 0 q w e r . . . . . ",
"t y u i p a s d f g h j k . . . ",
"l z x x c v b n x m M N B V . . ",
"C Z A S A D F G H H J K L P I . ",
"U Y T R E W Q ! ! ~ ~ ^ / ( ) _ ",
"` ' ] [ { } |  ...[ { X.o.O.+.@.",
"#.$.%.&.*.=.-.;.&.:.>.,.<.1.2.. ",
"3.4.5.6.7.8.9.0.q.w.e.r.t.y.. . ",
"u.i.p.a.s.d.f.g.h.j.k.l.. . . . ",
"z.x.c.v.b.n.m.M.N.b.B.. . . . . ",
"V.C.Z.A.S.D.F.G.A.H.. . . . . . ",
"J.K.L.. P.I.U.Y.. . . . . . . . ",
"T.R.. . S E.W.. . . . . . . . . "
};
