/* XPM */
const char *searchtrans_xpm[] = {
/* columns rows colors chars-per-pixel */
"16 16 98 2",
"X  c Black",
">  c #323131",
"d  c #464444",
"^  c #8C441A",
"X. c #8C8B8B",
"$  c #9B9A9A",
"o. c #827D7B",
"i  c #A09EA0",
"f  c #69605B",
"E  c #7B7F82",
"U  c #854019",
"z  c #494848",
"S  c #676666",
"-  c #5D5B5C",
"H  c #3C271B",
"Y  c #A3552A",
"W  c #65696C",
"{  c #D46A2F",
"1  c #292728",
"4  c #424142",
"u  c #383637",
"x  c #515051",
"]  c #210D03",
"+  c #838182",
"`  c #A34916",
"F  c #888587",
"a  c #C9C8C9",
"5  c #312F2F",
"M  c #403E3E",
"!  c #95502B",
"K  c #875D46",
"h  c #0C0D0F",
"   c None",
"0  c #161516",
"Q  c #491E06",
"[  c #B0521E",
"P  c #4D4D4D",
"C  c #3B2B23",
"/  c #251E1A",
"l  c #706F6F",
"g  c #5C5958",
"D  c #5A595A",
"6  c #504E4F",
".. c #7F6F67",
"v  c #26282A",
"G  c #3A3B3D",
"_  c #D66C32",
"y  c #3A3839",
"L  c #846756",
".  c #676566",
"3  c #676568",
"V  c #896855",
")  c #6F2C07",
"Z  c #333435",
"<  c #424041",
"T  c #924B24",
"8  c #A6A5A6",
":  c #A19E9F",
"R  c #552B12",
" . c #9AA0A4",
"#  c #3B393A",
"b  c #4F4946",
"B  c #734328",
"'  c #1D120D",
";  c #959394",
"p  c #BDBCBD",
"~  c #9F5125",
"}  c #5A2001",
"c  c #525051",
"(  c #5F6568",
"s  c #DEDEDF",
"7  c #B1AEB0",
"j  c #282727",
"m  c #414142",
"N  c #4C1E04",
"O  c #CDCCCC",
"e  c #8A898A",
"*  c #807E7F",
"&  c #A3A3A5",
"I  c #261811",
"t  c #2E2C2D",
"w  c #2E2C2E",
"=  c #3D3B3C",
"J  c #572A12",
"r  c #747374",
"2  c #747375",
"@  c #4F4E4E",
"+. c #B3B9BD",
"q  c #3B3839",
"9  c #868687",
"O. c #8D7E77",
"o  c #908E8F",
"n  c #635B57",
"|  c #7F8589",
",  c #393838",
"k  c #4D4B4C",
"%  c #707071",
"A  c #7A7879",
/* pixels */
"                                ",
"                                ",
"                                ",
"        . X         X o         ",
"    O + @ # $ % & * = - ;       ",
"    : > , < 1 2 3 1 4 5 6 7     ",
"  8 9 4 0 q w e r t y u i p a   ",
"s d f g h j k l z x c v b n m   ",
"M N B V C Z A S D F G H J K L P ",
"I U Y T R E         W Q ! ~ ^ / ",
"( ) _ ` '             ] [ { } | ",
"   ...X.                o.O.+.  ",
"                                ",
"                                ",
"                                ",
"                                "
};
