/* XPM */
const char *up_xpm[] = {
/* columns rows colors chars-per-pixel */
"16 16 170 2",
"i. c #24C0FF",
"A  c #0757BD",
"*  c #126FBE",
"*. c #146CCC",
"k  c #248BDA",
"V  c #3397DE",
"0  c #0A61C4",
"8. c #199FED",
"P. c #1770BF",
"#. c #3D9CDF",
";  c #126FCD",
"S. c #1B96EC",
"P  c #1382D9",
"]  c #3985EE",
"N  c #1075D1",
"m. c #51ACEA",
"X. c #23A1ED",
"M  c #1072CF",
":  c #2598E6",
"R. c #187DC7",
"|  c #176DC9",
"o  c #0971CF",
"v  c #2BA9F0",
"Z  c #0C72BD",
"C  c #43A7E6",
"O. c #198DE0",
"9  c #0962AD",
"#  c #0E6FCD",
"H  c #1A9DEB",
"b  c #1EBDFF",
"<. c #1BB0F9",
"%  c #379FE4",
"V. c #4FA0E2",
"c  c #1060C2",
"F  c #1EBAFF",
"-. c #0655BC",
"   c None",
"7. c #189DEA",
"a. c #1590E3",
"d  c #2AB6FA",
"T  c #1F66C3",
"J. c #166BBC",
",  c #328FD8",
"6. c #1393E6",
"u  c #4BA3E0",
"<  c #469FDF",
"&. c #1C7FC8",
"B. c #4D9ADF",
"D. c #386BAC",
"Z. c #75BAED",
" . c #146ECB",
"E  c #4DC6FD",
"q  c #2183D8",
"H. c #1468BA",
"U. c #1772C0",
"f. c #107AD4",
"a  c #0A60C3",
"g  c #199EEC",
"w. c #1691E3",
"I. c #176FBE",
"G. c #1966B8",
"+. c #157BD4",
"l  c #4CA7E4",
"r  c #168EE2",
"1  c #0B6AB9",
"h  c #1074D0",
"n. c #54B8F2",
"2  c #0D67C8",
"e. c #137ED7",
"z  c #1378C4",
"Q. c #0F5BC0",
"x. c #7CD5FC",
":. c #085DC1",
"G  c #1AA8F3",
">. c #1265C5",
"5  c #148EE2",
".  c #0D64D3",
"}  c #4180CE",
"s. c #0E71CE",
"l. c #0D5BBF",
"t. c #43A6E6",
"7  c #4099DC",
"0. c #2084CC",
"4. c #258BDA",
"O  c #3A7CC6",
"j. c #2A89CC",
",. c #29ABF2",
"N. c #4C95DA",
"~  c #1FA0EC",
"L  c #0F7BD5",
"J  c #1172CE",
"1. c #189FED",
"(  c #2582D5",
"E. c #2385CB",
"x  c #1592E5",
"W  c #56C9FD",
"y  c #1980D5",
"`  c #57AAE6",
"U  c #3AA5E9",
"K. c #166DBD",
"@  c #0D7ED8",
"t  c #0F75D1",
";. c #0457BF",
"c. c #54CCFF",
"^  c #1A90E2",
"d. c #0F72CF",
"F. c #477CBE",
"w  c #23B1F8",
"A. c #3178D0",
"$. c #2996E2",
")  c #2689DA",
"X  c #0F6FD6",
"g. c #1583DA",
"$  c #177AD3",
"9. c #0C5CC0",
"s  c #1971CC",
"n  c #1CADF6",
"/  c #1777D1",
"o. c #1B97E7",
"&  c #4EA3DF",
"-  c #0D6CCB",
"W. c #196ECF",
"k. c #1499E9",
"L. c #176EBD",
"Y  c #0B69B0",
"3  c #2793E2",
"Q  c #21ABF4",
"p. c #1DBAFF",
"R  c #6D9CD9",
"K  c #1577D1",
"!  c #239FEA",
"=. c #0D60B7",
".. c #1F7CD3",
">  c #1490E3",
"=  c #1183DB",
"u. c #1A72C1",
"6  c #137AD3",
"@. c #1D82D7",
"5. c #4AA6E4",
"_  c #1684DA",
"y. c #0355BD",
"Y. c #1875C2",
"B  c #117DD6",
"'  c #7BBBEE",
"I  c #3EA1E2",
"h. c #3EA1E3",
"v. c #58CBFE",
"z. c #4176BA",
"S  c #2897E4",
"C. c #54A8E6",
"p  c #128DE2",
"3. c #1177D3",
"M. c #4C94DA",
"f  c #1BAEF8",
"[  c #095499",
"D  c #21C2FF",
"r. c #3296DF",
"e  c #189EEC",
"2. c #1591E3",
"8  c #379AE1",
"+  c #2C79C4",
"j  c #0F77D3",
"T. c #1979C5",
"q. c #21BFFF",
"{  c #4978B3",
"%. c #1A92E3",
"m  c #158EE2",
"i  c #1E7DC7",
"b. c #56C2F8",
"4  c #1BA2EF",
/* pixels */
"              . X               ",
"            o O + @             ",
"          # $ % & * =           ",
"        - ; : > , < 1           ",
"        2 3 4 5 6 7 8 9         ",
"      0 q w e r t y u i p       ",
"    a s d f g r h j k l z x     ",
"    c v b n g m M N B V C Z     ",
"  A S D F G H m J K L P I U Y   ",
"T R E W Q ! ~ ^ / ( ) _ ` ' ] [ ",
"{ } |  ...X.o.O.+.@.#.$.%.&.*.=.",
"-.;.:.>.,.<.1.2.t 3.4.5.z 6.7.8.",
"    9.0.q.n 8.w.h N e.r.t.Z     ",
"  y.u.i.p.n 1.a.s.d.f.g.h.j.k.  ",
"l.z.x.c.v.b.n.m.M.N.B.V.C.Z.A.S.",
"D.F.G.H.J.K.L.P.I.U.Y.T.R.E.W.Q."
};
